solid usb-box-01
facet normal -0.0 1.0 -0.0
  outer loop
    vertex -50.97168756884808 20.104845274815588 22.0
    vertex -48.97168756884808 20.104845274815588 20.0
    vertex -50.97168756884808 20.104845274815588 20.0
  endloop
endfacet
facet normal -0.0 1.0 -0.0
  outer loop
    vertex -48.97168756884808 20.104845274815588 20.0
    vertex -50.97168756884808 20.104845274815588 22.0
    vertex -48.97168756884808 20.104845274815588 22.0
  endloop
endfacet
facet normal -0.0 1.0 -0.0
  outer loop
    vertex -25.971687568848083 20.104845274815588 22.0
    vertex -23.971687568848086 20.104845274815588 20.0
    vertex -25.971687568848083 20.104845274815588 20.0
  endloop
endfacet
facet normal -0.0 1.0 -0.0
  outer loop
    vertex -23.971687568848086 20.104845274815588 20.0
    vertex -25.971687568848083 20.104845274815588 22.0
    vertex -23.971687568848086 20.104845274815588 22.0
  endloop
endfacet
facet normal -0.0 1.0 -0.0
  outer loop
    vertex -0.9716875688480862 20.104845274815588 22.0
    vertex 1.0283124311519136 20.104845274815588 20.0
    vertex -0.9716875688480862 20.104845274815588 20.0
  endloop
endfacet
facet normal -0.0 1.0 -0.0
  outer loop
    vertex 1.0283124311519136 20.104845274815588 20.0
    vertex -0.9716875688480862 20.104845274815588 22.0
    vertex 1.0283124311519136 20.104845274815588 22.0
  endloop
endfacet
facet normal -0.0 1.0 -0.0
  outer loop
    vertex 24.028312431151914 20.104845274815588 22.0
    vertex 26.02831243115191 20.104845274815588 20.0
    vertex 24.028312431151914 20.104845274815588 20.0
  endloop
endfacet
facet normal -0.0 1.0 -0.0
  outer loop
    vertex 26.02831243115191 20.104845274815588 20.0
    vertex 24.028312431151914 20.104845274815588 22.0
    vertex 26.02831243115191 20.104845274815588 22.0
  endloop
endfacet
facet normal -0.0 1.0 -0.0
  outer loop
    vertex 49.02831243115192 20.104845274815588 22.0
    vertex 51.02831243115191 20.104845274815588 20.0
    vertex 49.02831243115192 20.104845274815588 20.0
  endloop
endfacet
facet normal -0.0 1.0 -0.0
  outer loop
    vertex 51.02831243115191 20.104845274815588 20.0
    vertex 49.02831243115192 20.104845274815588 22.0
    vertex 51.02831243115191 20.104845274815588 22.0
  endloop
endfacet
facet normal -0.0 1.0 -0.0
  outer loop
    vertex -74.97168756884808 20.104845274815588 20.0
    vertex 75.02831243115192 20.104845274815588 0.0
    vertex -74.97168756884808 20.104845274815588 0.0
  endloop
endfacet
facet normal -0.0 1.0 -0.0
  outer loop
    vertex 75.02831243115192 20.104845274815588 0.0
    vertex -74.97168756884808 20.104845274815588 20.0
    vertex 75.02831243115192 20.104845274815588 20.0
  endloop
endfacet
facet normal -0.0 1.0 -0.0
  outer loop
    vertex 75.02831243115192 20.104845274815588 20.0
    vertex -74.97168756884808 20.104845274815588 20.0
    vertex -50.97168756884808 20.104845274815588 20.0
  endloop
endfacet
facet normal -0.0 1.0 -0.0
  outer loop
    vertex 75.02831243115192 20.104845274815588 20.0
    vertex -50.97168756884808 20.104845274815588 20.0
    vertex -48.97168756884808 20.104845274815588 20.0
  endloop
endfacet
facet normal -0.0 1.0 -0.0
  outer loop
    vertex 75.02831243115192 20.104845274815588 20.0
    vertex -48.97168756884808 20.104845274815588 20.0
    vertex -25.971687568848083 20.104845274815588 20.0
  endloop
endfacet
facet normal -0.0 1.0 -0.0
  outer loop
    vertex 75.02831243115192 20.104845274815588 20.0
    vertex -25.971687568848083 20.104845274815588 20.0
    vertex -23.971687568848086 20.104845274815588 20.0
  endloop
endfacet
facet normal -0.0 1.0 -0.0
  outer loop
    vertex 75.02831243115192 20.104845274815588 20.0
    vertex -23.971687568848086 20.104845274815588 20.0
    vertex -0.9716875688480862 20.104845274815588 20.0
  endloop
endfacet
facet normal -0.0 1.0 -0.0
  outer loop
    vertex 75.02831243115192 20.104845274815588 20.0
    vertex -0.9716875688480862 20.104845274815588 20.0
    vertex 1.0283124311519136 20.104845274815588 20.0
  endloop
endfacet
facet normal -0.0 1.0 -0.0
  outer loop
    vertex 75.02831243115192 20.104845274815588 20.0
    vertex 1.0283124311519136 20.104845274815588 20.0
    vertex 24.028312431151914 20.104845274815588 20.0
  endloop
endfacet
facet normal -0.0 1.0 -0.0
  outer loop
    vertex 75.02831243115192 20.104845274815588 20.0
    vertex 24.028312431151914 20.104845274815588 20.0
    vertex 26.02831243115191 20.104845274815588 20.0
  endloop
endfacet
facet normal -0.0 1.0 -0.0
  outer loop
    vertex 75.02831243115192 20.104845274815588 20.0
    vertex 26.02831243115191 20.104845274815588 20.0
    vertex 49.02831243115192 20.104845274815588 20.0
  endloop
endfacet
facet normal -0.0 1.0 -0.0
  outer loop
    vertex 75.02831243115192 20.104845274815588 20.0
    vertex 49.02831243115192 20.104845274815588 20.0
    vertex 51.02831243115191 20.104845274815588 20.0
  endloop
endfacet
facet normal 1.0 -0.0 -0.0
  outer loop
    vertex 75.02831243115192 20.104845274815588 0.0
    vertex 75.02831243115192 -9.895154725184412 5.0
    vertex 75.02831243115192 -19.895154725184412 0.0
  endloop
endfacet
facet normal 1.0 -0.0 -0.0
  outer loop
    vertex 75.02831243115192 -9.895154725184412 5.0
    vertex 75.02831243115192 20.104845274815588 0.0
    vertex 75.02831243115192 -7.395154725184413 5.0
  endloop
endfacet
facet normal 1.0 -0.0 -0.0
  outer loop
    vertex 75.02831243115192 -7.395154725184413 5.0
    vertex 75.02831243115192 20.104845274815588 0.0
    vertex 75.02831243115192 -7.395154725184413 7.5
  endloop
endfacet
facet normal 1.0 -0.0 -0.0
  outer loop
    vertex 75.02831243115192 -7.395154725184413 7.5
    vertex 75.02831243115192 20.104845274815588 0.0
    vertex 75.02831243115192 12.604845274815588 5.0
  endloop
endfacet
facet normal 1.0 -0.0 -0.0
  outer loop
    vertex 75.02831243115192 -7.395154725184413 7.5
    vertex 75.02831243115192 12.604845274815588 5.0
    vertex 75.02831243115192 -4.895154725184409 20.0
  endloop
endfacet
facet normal 1.0 -0.0 -0.0
  outer loop
    vertex 75.02831243115192 12.604845274815588 5.0
    vertex 75.02831243115192 20.104845274815588 0.0
    vertex 75.02831243115192 15.104845274815588 5.0
  endloop
endfacet
facet normal 1.0 -0.0 -0.0
  outer loop
    vertex 75.02831243115192 15.104845274815588 5.0
    vertex 75.02831243115192 20.104845274815588 0.0
    vertex 75.02831243115192 15.104845274815588 7.5
  endloop
endfacet
facet normal 1.0 -0.0 -0.0
  outer loop
    vertex 75.02831243115192 15.104845274815588 7.5
    vertex 75.02831243115192 20.104845274815588 0.0
    vertex 75.02831243115192 15.104845274815592 12.500000000000002
  endloop
endfacet
facet normal 1.0 -0.0 -0.0
  outer loop
    vertex 75.02831243115192 15.104845274815592 12.500000000000002
    vertex 75.02831243115192 20.104845274815588 0.0
    vertex 75.02831243115192 15.104845274815592 15.0
  endloop
endfacet
facet normal 1.0 -0.0 -0.0
  outer loop
    vertex 75.02831243115192 -4.895154725184409 20.0
    vertex 75.02831243115192 12.60484527481559 15.0
    vertex 75.02831243115192 20.104845274815588 20.0
  endloop
endfacet
facet normal 1.0 -0.0 -0.0
  outer loop
    vertex 75.02831243115192 12.60484527481559 15.0
    vertex 75.02831243115192 -4.895154725184409 20.0
    vertex 75.02831243115192 12.604845274815588 7.5
  endloop
endfacet
facet normal 1.0 -0.0 -0.0
  outer loop
    vertex 75.02831243115192 12.604845274815588 7.5
    vertex 75.02831243115192 -4.895154725184409 20.0
    vertex 75.02831243115192 12.604845274815588 5.0
  endloop
endfacet
facet normal 1.0 -0.0 -0.0
  outer loop
    vertex 75.02831243115192 12.60484527481559 15.0
    vertex 75.02831243115192 12.604845274815588 7.5
    vertex 75.02831243115192 12.60484527481559 12.500000000000002
  endloop
endfacet
facet normal 1.0 -0.0 -0.0
  outer loop
    vertex 75.02831243115192 20.104845274815588 20.0
    vertex 75.02831243115192 12.60484527481559 15.0
    vertex 75.02831243115192 15.104845274815592 15.0
  endloop
endfacet
facet normal 1.0 -0.0 -0.0
  outer loop
    vertex 75.02831243115192 20.104845274815588 20.0
    vertex 75.02831243115192 15.104845274815592 15.0
    vertex 75.02831243115192 20.104845274815588 0.0
  endloop
endfacet
facet normal 1.0 -0.0 -0.0
  outer loop
    vertex 75.02831243115192 15.104845274815588 7.5
    vertex 75.02831243115192 12.60484527481559 12.500000000000002
    vertex 75.02831243115192 12.604845274815588 7.5
  endloop
endfacet
facet normal 1.0 -0.0 -0.0
  outer loop
    vertex 75.02831243115192 12.60484527481559 12.500000000000002
    vertex 75.02831243115192 15.104845274815588 7.5
    vertex 75.02831243115192 15.104845274815592 12.500000000000002
  endloop
endfacet
facet normal 1.0 -0.0 -0.0
  outer loop
    vertex 75.02831243115192 -19.895154725184412 0.0
    vertex 75.02831243115192 -9.895154725184412 7.5
    vertex 75.02831243115192 -4.895154725184409 20.0
  endloop
endfacet
facet normal 1.0 -0.0 -0.0
  outer loop
    vertex 75.02831243115192 -9.895154725184412 7.5
    vertex 75.02831243115192 -19.895154725184412 0.0
    vertex 75.02831243115192 -9.895154725184412 5.0
  endloop
endfacet
facet normal 1.0 -0.0 -0.0
  outer loop
    vertex 75.02831243115192 -4.895154725184409 20.0
    vertex 75.02831243115192 -9.895154725184412 7.5
    vertex 75.02831243115192 -7.395154725184413 7.5
  endloop
endfacet
facet normal 9.948215091210638e-17 -0.8 0.6000000000000002
  outer loop
    vertex 75.02831243115192 -4.895154725184409 20.0
    vertex 51.02831243115191 -19.895154725184415 0.0
    vertex 75.02831243115192 -19.895154725184412 0.0
  endloop
endfacet
facet normal 9.948215091210638e-17 -0.8 0.6000000000000002
  outer loop
    vertex 51.02831243115191 -19.895154725184415 0.0
    vertex 75.02831243115192 -4.895154725184409 20.0
    vertex 51.02831243115191 -4.895154725184412 20.0
  endloop
endfacet
facet normal 1.474018469883648e-17 -2.3499720687899203e-17 -1.0
  outer loop
    vertex 75.02831243115192 20.104845274815588 0.0
    vertex -74.97168756884808 -19.895154725184412 0.0
    vertex -74.97168756884808 20.104845274815588 0.0
  endloop
endfacet
facet normal 1.474018469883648e-17 -2.3499720687899203e-17 -1.0
  outer loop
    vertex -74.97168756884808 -19.895154725184412 0.0
    vertex 75.02831243115192 20.104845274815588 0.0
    vertex -50.97168756884808 -19.89515472518442 -5.639932965095795e-15
  endloop
endfacet
facet normal 1.474018469883648e-17 -2.3499720687899203e-17 -1.0
  outer loop
    vertex -50.97168756884808 -19.89515472518442 -5.639932965095795e-15
    vertex 75.02831243115192 20.104845274815588 0.0
    vertex -48.97168756884808 -19.895154725184412 0.0
  endloop
endfacet
facet normal 1.474018469883648e-17 -2.3499720687899203e-17 -1.0
  outer loop
    vertex -48.97168756884808 -19.895154725184412 0.0
    vertex 75.02831243115192 20.104845274815588 0.0
    vertex -25.971687568848083 -19.89515472518442 -5.639932965095795e-15
  endloop
endfacet
facet normal 1.474018469883648e-17 -2.3499720687899203e-17 -1.0
  outer loop
    vertex -25.971687568848083 -19.89515472518442 -5.639932965095795e-15
    vertex 75.02831243115192 20.104845274815588 0.0
    vertex -23.971687568848086 -19.895154725184412 0.0
  endloop
endfacet
facet normal 1.474018469883648e-17 -2.3499720687899203e-17 -1.0
  outer loop
    vertex -23.971687568848086 -19.895154725184412 0.0
    vertex 75.02831243115192 20.104845274815588 0.0
    vertex -0.9716875688480873 -19.895154725184426 5.639932965095795e-15
  endloop
endfacet
facet normal 1.474018469883648e-17 -2.3499720687899203e-17 -1.0
  outer loop
    vertex -0.9716875688480873 -19.895154725184426 5.639932965095795e-15
    vertex 75.02831243115192 20.104845274815588 0.0
    vertex 1.0283124311519127 -19.895154725184423 8.459899447643692e-15
  endloop
endfacet
facet normal 1.474018469883648e-17 -2.3499720687899203e-17 -1.0
  outer loop
    vertex 1.0283124311519127 -19.895154725184423 8.459899447643692e-15
    vertex 75.02831243115192 20.104845274815588 0.0
    vertex 24.028312431151914 -19.895154725184426 5.639932965095795e-15
  endloop
endfacet
facet normal 1.474018469883648e-17 -2.3499720687899203e-17 -1.0
  outer loop
    vertex 24.028312431151914 -19.895154725184426 5.639932965095795e-15
    vertex 75.02831243115192 20.104845274815588 0.0
    vertex 26.02831243115191 -19.895154725184423 8.459899447643692e-15
  endloop
endfacet
facet normal 1.474018469883648e-17 -2.3499720687899203e-17 -1.0
  outer loop
    vertex 26.02831243115191 -19.895154725184423 8.459899447643692e-15
    vertex 75.02831243115192 20.104845274815588 0.0
    vertex 49.02831243115192 -19.895154725184423 -5.639932965095795e-15
  endloop
endfacet
facet normal 1.474018469883648e-17 -2.3499720687899203e-17 -1.0
  outer loop
    vertex 49.02831243115192 -19.895154725184423 -5.639932965095795e-15
    vertex 75.02831243115192 20.104845274815588 0.0
    vertex 51.02831243115191 -19.895154725184415 0.0
  endloop
endfacet
facet normal 1.474018469883648e-17 -2.3499720687899203e-17 -1.0
  outer loop
    vertex 51.02831243115191 -19.895154725184415 0.0
    vertex 75.02831243115192 20.104845274815588 0.0
    vertex 75.02831243115192 -19.895154725184412 0.0
  endloop
endfacet
facet normal 0.0 0.0 1.0
  outer loop
    vertex -55.97168756884808 4.853351392315061 7.999999999999994
    vertex -68.97168756884808 10.35335139231506 7.999999999999994
    vertex -68.97168756884808 4.853351392315061 7.999999999999994
  endloop
endfacet
facet normal 0.0 0.0 1.0
  outer loop
    vertex -68.97168756884808 10.35335139231506 7.999999999999994
    vertex -55.97168756884808 4.853351392315061 7.999999999999994
    vertex -55.97168756884808 10.35335139231506 7.999999999999994
  endloop
endfacet
facet normal 1.0 -0.0 -0.0
  outer loop
    vertex -68.97168756884808 10.35335139231506 7.999999999999994
    vertex -68.97168756884808 4.853351392315061 19.999999999999993
    vertex -68.97168756884808 4.853351392315061 7.999999999999994
  endloop
endfacet
facet normal 1.0 -0.0 -0.0
  outer loop
    vertex -68.97168756884808 4.853351392315061 19.999999999999993
    vertex -68.97168756884808 10.35335139231506 7.999999999999994
    vertex -68.97168756884808 10.35335139231506 19.999999999999993
  endloop
endfacet
facet normal -0.0 1.0 -0.0
  outer loop
    vertex -68.97168756884808 4.853351392315061 19.999999999999993
    vertex -55.97168756884808 4.853351392315061 7.999999999999994
    vertex -68.97168756884808 4.853351392315061 7.999999999999994
  endloop
endfacet
facet normal -0.0 1.0 -0.0
  outer loop
    vertex -55.97168756884808 4.853351392315061 7.999999999999994
    vertex -68.97168756884808 4.853351392315061 19.999999999999993
    vertex -55.97168756884808 4.853351392315061 19.999999999999993
  endloop
endfacet
facet normal -1.0 -0.0 -0.0
  outer loop
    vertex -55.97168756884808 10.35335139231506 19.999999999999993
    vertex -55.97168756884808 4.853351392315061 7.999999999999994
    vertex -55.97168756884808 4.853351392315061 19.999999999999993
  endloop
endfacet
facet normal -1.0 -0.0 -0.0
  outer loop
    vertex -55.97168756884808 4.853351392315061 7.999999999999994
    vertex -55.97168756884808 10.35335139231506 19.999999999999993
    vertex -55.97168756884808 10.35335139231506 7.999999999999994
  endloop
endfacet
facet normal -0.0 -1.0 0.0
  outer loop
    vertex -55.97168756884808 10.35335139231506 19.999999999999993
    vertex -68.97168756884808 10.35335139231506 7.999999999999994
    vertex -55.97168756884808 10.35335139231506 7.999999999999994
  endloop
endfacet
facet normal -0.0 -1.0 0.0
  outer loop
    vertex -68.97168756884808 10.35335139231506 7.999999999999994
    vertex -55.97168756884808 10.35335139231506 19.999999999999993
    vertex -68.97168756884808 10.35335139231506 19.999999999999993
  endloop
endfacet
facet normal 0.0 0.0 1.0
  outer loop
    vertex -31.047178105942667 4.855829999961164 7.999999999999991
    vertex -44.04717810594266 10.355829999961163 7.999999999999991
    vertex -44.04717810594266 4.855829999961164 7.999999999999991
  endloop
endfacet
facet normal 0.0 0.0 1.0
  outer loop
    vertex -44.04717810594266 10.355829999961163 7.999999999999991
    vertex -31.047178105942667 4.855829999961164 7.999999999999991
    vertex -31.047178105942667 10.355829999961163 7.999999999999991
  endloop
endfacet
facet normal 1.0 -0.0 -0.0
  outer loop
    vertex -44.04717810594266 10.355829999961163 7.999999999999991
    vertex -44.04717810594266 4.855829999961164 19.999999999999993
    vertex -44.04717810594266 4.855829999961164 7.999999999999991
  endloop
endfacet
facet normal 1.0 -0.0 -0.0
  outer loop
    vertex -44.04717810594266 4.855829999961164 19.999999999999993
    vertex -44.04717810594266 10.355829999961163 7.999999999999991
    vertex -44.04717810594266 10.355829999961163 19.999999999999993
  endloop
endfacet
facet normal -0.0 1.0 -0.0
  outer loop
    vertex -44.04717810594266 4.855829999961164 19.999999999999993
    vertex -31.047178105942667 4.855829999961164 7.999999999999991
    vertex -44.04717810594266 4.855829999961164 7.999999999999991
  endloop
endfacet
facet normal -0.0 1.0 -0.0
  outer loop
    vertex -31.047178105942667 4.855829999961164 7.999999999999991
    vertex -44.04717810594266 4.855829999961164 19.999999999999993
    vertex -31.047178105942667 4.855829999961164 19.999999999999993
  endloop
endfacet
facet normal -1.0 -0.0 -0.0
  outer loop
    vertex -31.047178105942667 10.355829999961163 19.999999999999993
    vertex -31.047178105942667 4.855829999961164 7.999999999999991
    vertex -31.047178105942667 4.855829999961164 19.999999999999993
  endloop
endfacet
facet normal -1.0 -0.0 -0.0
  outer loop
    vertex -31.047178105942667 4.855829999961164 7.999999999999991
    vertex -31.047178105942667 10.355829999961163 19.999999999999993
    vertex -31.047178105942667 10.355829999961163 7.999999999999991
  endloop
endfacet
facet normal -0.0 -1.0 0.0
  outer loop
    vertex -31.047178105942667 10.355829999961163 19.999999999999993
    vertex -44.04717810594266 10.355829999961163 7.999999999999991
    vertex -31.047178105942667 10.355829999961163 7.999999999999991
  endloop
endfacet
facet normal -0.0 -1.0 0.0
  outer loop
    vertex -44.04717810594266 10.355829999961163 7.999999999999991
    vertex -31.047178105942667 10.355829999961163 19.999999999999993
    vertex -44.04717810594266 10.355829999961163 19.999999999999993
  endloop
endfacet
facet normal 0.0 0.0 1.0
  outer loop
    vertex -5.985161078110432 4.91311633589354 7.999999999999991
    vertex -18.98516107811043 10.41311633589354 7.999999999999991
    vertex -18.98516107811043 4.91311633589354 7.999999999999991
  endloop
endfacet
facet normal 0.0 0.0 1.0
  outer loop
    vertex -18.98516107811043 10.41311633589354 7.999999999999991
    vertex -5.985161078110432 4.91311633589354 7.999999999999991
    vertex -5.985161078110432 10.41311633589354 7.999999999999991
  endloop
endfacet
facet normal 1.0 -0.0 -0.0
  outer loop
    vertex -18.98516107811043 10.41311633589354 7.999999999999991
    vertex -18.98516107811043 4.91311633589354 19.999999999999993
    vertex -18.98516107811043 4.91311633589354 7.999999999999991
  endloop
endfacet
facet normal 1.0 -0.0 -0.0
  outer loop
    vertex -18.98516107811043 4.91311633589354 19.999999999999993
    vertex -18.98516107811043 10.41311633589354 7.999999999999991
    vertex -18.98516107811043 10.41311633589354 19.999999999999993
  endloop
endfacet
facet normal -0.0 1.0 -0.0
  outer loop
    vertex -18.98516107811043 4.91311633589354 19.999999999999993
    vertex -5.985161078110432 4.91311633589354 7.999999999999991
    vertex -18.98516107811043 4.91311633589354 7.999999999999991
  endloop
endfacet
facet normal -0.0 1.0 -0.0
  outer loop
    vertex -5.985161078110432 4.91311633589354 7.999999999999991
    vertex -18.98516107811043 4.91311633589354 19.999999999999993
    vertex -5.985161078110432 4.91311633589354 19.999999999999993
  endloop
endfacet
facet normal -1.0 -0.0 -0.0
  outer loop
    vertex -5.985161078110432 10.41311633589354 19.999999999999993
    vertex -5.985161078110432 4.91311633589354 7.999999999999991
    vertex -5.985161078110432 4.91311633589354 19.999999999999993
  endloop
endfacet
facet normal -1.0 -0.0 -0.0
  outer loop
    vertex -5.985161078110432 4.91311633589354 7.999999999999991
    vertex -5.985161078110432 10.41311633589354 19.999999999999993
    vertex -5.985161078110432 10.41311633589354 7.999999999999991
  endloop
endfacet
facet normal -0.0 -1.0 0.0
  outer loop
    vertex -5.985161078110432 10.41311633589354 19.999999999999993
    vertex -18.98516107811043 10.41311633589354 7.999999999999991
    vertex -5.985161078110432 10.41311633589354 7.999999999999991
  endloop
endfacet
facet normal -0.0 -1.0 0.0
  outer loop
    vertex -18.98516107811043 10.41311633589354 7.999999999999991
    vertex -5.985161078110432 10.41311633589354 19.999999999999993
    vertex -18.98516107811043 10.41311633589354 19.999999999999993
  endloop
endfacet
facet normal 0.0 0.0 1.0
  outer loop
    vertex 18.99480729302125 4.913128915723169 7.999999999999991
    vertex 5.994807293021253 10.413128915723169 7.999999999999991
    vertex 5.994807293021253 4.913128915723169 7.999999999999991
  endloop
endfacet
facet normal 0.0 0.0 1.0
  outer loop
    vertex 5.994807293021253 10.413128915723169 7.999999999999991
    vertex 18.99480729302125 4.913128915723169 7.999999999999991
    vertex 18.99480729302125 10.413128915723169 7.999999999999991
  endloop
endfacet
facet normal 1.0 -0.0 -0.0
  outer loop
    vertex 5.994807293021253 10.413128915723169 7.999999999999991
    vertex 5.994807293021253 4.913128915723169 19.999999999999993
    vertex 5.994807293021253 4.913128915723169 7.999999999999991
  endloop
endfacet
facet normal 1.0 -0.0 -0.0
  outer loop
    vertex 5.994807293021253 4.913128915723169 19.999999999999993
    vertex 5.994807293021253 10.413128915723169 7.999999999999991
    vertex 5.994807293021253 10.413128915723169 19.999999999999993
  endloop
endfacet
facet normal -0.0 1.0 -0.0
  outer loop
    vertex 5.994807293021253 4.913128915723169 19.999999999999993
    vertex 18.99480729302125 4.913128915723169 7.999999999999991
    vertex 5.994807293021253 4.913128915723169 7.999999999999991
  endloop
endfacet
facet normal -0.0 1.0 -0.0
  outer loop
    vertex 18.99480729302125 4.913128915723169 7.999999999999991
    vertex 5.994807293021253 4.913128915723169 19.999999999999993
    vertex 18.99480729302125 4.913128915723169 19.999999999999993
  endloop
endfacet
facet normal -1.0 -0.0 -0.0
  outer loop
    vertex 18.99480729302125 10.413128915723169 19.999999999999993
    vertex 18.99480729302125 4.913128915723169 7.999999999999991
    vertex 18.99480729302125 4.913128915723169 19.999999999999993
  endloop
endfacet
facet normal -1.0 -0.0 -0.0
  outer loop
    vertex 18.99480729302125 4.913128915723169 7.999999999999991
    vertex 18.99480729302125 10.413128915723169 19.999999999999993
    vertex 18.99480729302125 10.413128915723169 7.999999999999991
  endloop
endfacet
facet normal -0.0 -1.0 0.0
  outer loop
    vertex 18.99480729302125 10.413128915723169 19.999999999999993
    vertex 5.994807293021253 10.413128915723169 7.999999999999991
    vertex 18.99480729302125 10.413128915723169 7.999999999999991
  endloop
endfacet
facet normal -0.0 -1.0 0.0
  outer loop
    vertex 5.994807293021253 10.413128915723169 7.999999999999991
    vertex 18.99480729302125 10.413128915723169 19.999999999999993
    vertex 5.994807293021253 10.413128915723169 19.999999999999993
  endloop
endfacet
facet normal 0.0 0.0 1.0
  outer loop
    vertex 43.968501060344884 4.88844673808857 7.9999999999999964
    vertex 30.968501060344888 10.38844673808857 7.9999999999999964
    vertex 30.968501060344888 4.88844673808857 7.9999999999999964
  endloop
endfacet
facet normal 0.0 0.0 1.0
  outer loop
    vertex 30.968501060344888 10.38844673808857 7.9999999999999964
    vertex 43.968501060344884 4.88844673808857 7.9999999999999964
    vertex 43.968501060344884 10.38844673808857 7.9999999999999964
  endloop
endfacet
facet normal 1.0 -0.0 -0.0
  outer loop
    vertex 30.968501060344888 10.38844673808857 7.9999999999999964
    vertex 30.968501060344888 4.88844673808857 19.999999999999996
    vertex 30.968501060344888 4.88844673808857 7.9999999999999964
  endloop
endfacet
facet normal 1.0 -0.0 -0.0
  outer loop
    vertex 30.968501060344888 4.88844673808857 19.999999999999996
    vertex 30.968501060344888 10.38844673808857 7.9999999999999964
    vertex 30.968501060344888 10.38844673808857 19.999999999999996
  endloop
endfacet
facet normal -0.0 1.0 -0.0
  outer loop
    vertex 30.968501060344888 4.88844673808857 19.999999999999996
    vertex 43.968501060344884 4.88844673808857 7.9999999999999964
    vertex 30.968501060344888 4.88844673808857 7.9999999999999964
  endloop
endfacet
facet normal -0.0 1.0 -0.0
  outer loop
    vertex 43.968501060344884 4.88844673808857 7.9999999999999964
    vertex 30.968501060344888 4.88844673808857 19.999999999999996
    vertex 43.968501060344884 4.88844673808857 19.999999999999996
  endloop
endfacet
facet normal -1.0 -0.0 -0.0
  outer loop
    vertex 43.968501060344884 10.38844673808857 19.999999999999996
    vertex 43.968501060344884 4.88844673808857 7.9999999999999964
    vertex 43.968501060344884 4.88844673808857 19.999999999999996
  endloop
endfacet
facet normal -1.0 -0.0 -0.0
  outer loop
    vertex 43.968501060344884 4.88844673808857 7.9999999999999964
    vertex 43.968501060344884 10.38844673808857 19.999999999999996
    vertex 43.968501060344884 10.38844673808857 7.9999999999999964
  endloop
endfacet
facet normal -0.0 -1.0 0.0
  outer loop
    vertex 43.968501060344884 10.38844673808857 19.999999999999996
    vertex 30.968501060344888 10.38844673808857 7.9999999999999964
    vertex 43.968501060344884 10.38844673808857 7.9999999999999964
  endloop
endfacet
facet normal -0.0 -1.0 0.0
  outer loop
    vertex 30.968501060344888 10.38844673808857 7.9999999999999964
    vertex 43.968501060344884 10.38844673808857 19.999999999999996
    vertex 30.968501060344888 10.38844673808857 19.999999999999996
  endloop
endfacet
facet normal 0.0 0.0 1.0
  outer loop
    vertex 68.98720760437087 4.849753685853213 7.999999999999991
    vertex 55.98720760437087 10.349753685853212 7.999999999999991
    vertex 55.98720760437087 4.849753685853213 7.999999999999991
  endloop
endfacet
facet normal 0.0 0.0 1.0
  outer loop
    vertex 55.98720760437087 10.349753685853212 7.999999999999991
    vertex 68.98720760437087 4.849753685853213 7.999999999999991
    vertex 68.98720760437087 10.349753685853212 7.999999999999991
  endloop
endfacet
facet normal 1.0 -0.0 -0.0
  outer loop
    vertex 55.98720760437087 10.349753685853212 7.999999999999991
    vertex 55.98720760437087 4.849753685853213 19.999999999999993
    vertex 55.98720760437087 4.849753685853213 7.999999999999991
  endloop
endfacet
facet normal 1.0 -0.0 -0.0
  outer loop
    vertex 55.98720760437087 4.849753685853213 19.999999999999993
    vertex 55.98720760437087 10.349753685853212 7.999999999999991
    vertex 55.98720760437087 10.349753685853212 19.999999999999993
  endloop
endfacet
facet normal -0.0 1.0 -0.0
  outer loop
    vertex 55.98720760437087 4.849753685853213 19.999999999999993
    vertex 68.98720760437087 4.849753685853213 7.999999999999991
    vertex 55.98720760437087 4.849753685853213 7.999999999999991
  endloop
endfacet
facet normal -0.0 1.0 -0.0
  outer loop
    vertex 68.98720760437087 4.849753685853213 7.999999999999991
    vertex 55.98720760437087 4.849753685853213 19.999999999999993
    vertex 68.98720760437087 4.849753685853213 19.999999999999993
  endloop
endfacet
facet normal -1.0 -0.0 -0.0
  outer loop
    vertex 68.98720760437087 10.349753685853212 19.999999999999993
    vertex 68.98720760437087 4.849753685853213 7.999999999999991
    vertex 68.98720760437087 4.849753685853213 19.999999999999993
  endloop
endfacet
facet normal -1.0 -0.0 -0.0
  outer loop
    vertex 68.98720760437087 4.849753685853213 7.999999999999991
    vertex 68.98720760437087 10.349753685853212 19.999999999999993
    vertex 68.98720760437087 10.349753685853212 7.999999999999991
  endloop
endfacet
facet normal -0.0 -1.0 0.0
  outer loop
    vertex 68.98720760437087 10.349753685853212 19.999999999999993
    vertex 55.98720760437087 10.349753685853212 7.999999999999991
    vertex 68.98720760437087 10.349753685853212 7.999999999999991
  endloop
endfacet
facet normal -0.0 -1.0 0.0
  outer loop
    vertex 55.98720760437087 10.349753685853212 7.999999999999991
    vertex 68.98720760437087 10.349753685853212 19.999999999999993
    vertex 55.98720760437087 10.349753685853212 19.999999999999993
  endloop
endfacet
facet normal 1.0 0.0 0.0
  outer loop
    vertex 70.0283124311519 -7.395154725184413 5.0
    vertex 70.0283124311519 -9.895154725184412 7.5
    vertex 70.0283124311519 -9.895154725184412 5.0
  endloop
endfacet
facet normal 1.0 0.0 0.0
  outer loop
    vertex 70.0283124311519 -9.895154725184412 7.5
    vertex 70.0283124311519 -7.395154725184413 5.0
    vertex 70.0283124311519 -7.395154725184413 7.5
  endloop
endfacet
facet normal -0.0 -1.0 0.0
  outer loop
    vertex 75.02831243115192 -7.395154725184413 7.5
    vertex 70.0283124311519 -7.395154725184413 5.0
    vertex 75.02831243115192 -7.395154725184413 5.0
  endloop
endfacet
facet normal -0.0 -1.0 0.0
  outer loop
    vertex 70.0283124311519 -7.395154725184413 5.0
    vertex 75.02831243115192 -7.395154725184413 7.5
    vertex 70.0283124311519 -7.395154725184413 7.5
  endloop
endfacet
facet normal -0.0 -0.0 -1.0
  outer loop
    vertex 75.02831243115192 -7.395154725184413 7.5
    vertex 70.0283124311519 -9.895154725184412 7.5
    vertex 70.0283124311519 -7.395154725184413 7.5
  endloop
endfacet
facet normal -0.0 -0.0 -1.0
  outer loop
    vertex 70.0283124311519 -9.895154725184412 7.5
    vertex 75.02831243115192 -7.395154725184413 7.5
    vertex 75.02831243115192 -9.895154725184412 7.5
  endloop
endfacet
facet normal 0.0 1.0 0.0
  outer loop
    vertex 70.0283124311519 -9.895154725184412 7.5
    vertex 75.02831243115192 -9.895154725184412 5.0
    vertex 70.0283124311519 -9.895154725184412 5.0
  endloop
endfacet
facet normal 0.0 1.0 0.0
  outer loop
    vertex 75.02831243115192 -9.895154725184412 5.0
    vertex 70.0283124311519 -9.895154725184412 7.5
    vertex 75.02831243115192 -9.895154725184412 7.5
  endloop
endfacet
facet normal -0.0 -0.0 1.0
  outer loop
    vertex 75.02831243115192 -9.895154725184412 5.0
    vertex 70.0283124311519 -7.395154725184413 5.0
    vertex 70.0283124311519 -9.895154725184412 5.0
  endloop
endfacet
facet normal -0.0 -0.0 1.0
  outer loop
    vertex 70.0283124311519 -7.395154725184413 5.0
    vertex 75.02831243115192 -9.895154725184412 5.0
    vertex 75.02831243115192 -7.395154725184413 5.0
  endloop
endfacet
facet normal 1.0 0.0 0.0
  outer loop
    vertex 70.0283124311519 15.104845274815588 5.0
    vertex 70.0283124311519 12.604845274815588 7.5
    vertex 70.0283124311519 12.604845274815588 5.0
  endloop
endfacet
facet normal 1.0 0.0 0.0
  outer loop
    vertex 70.0283124311519 12.604845274815588 7.5
    vertex 70.0283124311519 15.104845274815588 5.0
    vertex 70.0283124311519 15.104845274815588 7.5
  endloop
endfacet
facet normal -0.0 -0.0 -1.0
  outer loop
    vertex 75.02831243115192 15.104845274815588 7.5
    vertex 70.0283124311519 12.604845274815588 7.5
    vertex 70.0283124311519 15.104845274815588 7.5
  endloop
endfacet
facet normal -0.0 -0.0 -1.0
  outer loop
    vertex 70.0283124311519 12.604845274815588 7.5
    vertex 75.02831243115192 15.104845274815588 7.5
    vertex 75.02831243115192 12.604845274815588 7.5
  endloop
endfacet
facet normal 0.0 1.0 0.0
  outer loop
    vertex 70.0283124311519 12.604845274815588 7.5
    vertex 75.02831243115192 12.604845274815588 5.0
    vertex 70.0283124311519 12.604845274815588 5.0
  endloop
endfacet
facet normal 0.0 1.0 0.0
  outer loop
    vertex 75.02831243115192 12.604845274815588 5.0
    vertex 70.0283124311519 12.604845274815588 7.5
    vertex 75.02831243115192 12.604845274815588 7.5
  endloop
endfacet
facet normal -0.0 -0.0 1.0
  outer loop
    vertex 75.02831243115192 12.604845274815588 5.0
    vertex 70.0283124311519 15.104845274815588 5.0
    vertex 70.0283124311519 12.604845274815588 5.0
  endloop
endfacet
facet normal -0.0 -0.0 1.0
  outer loop
    vertex 70.0283124311519 15.104845274815588 5.0
    vertex 75.02831243115192 12.604845274815588 5.0
    vertex 75.02831243115192 15.104845274815588 5.0
  endloop
endfacet
facet normal -0.0 -1.0 0.0
  outer loop
    vertex 75.02831243115192 15.104845274815588 7.5
    vertex 70.0283124311519 15.104845274815588 5.0
    vertex 75.02831243115192 15.104845274815588 5.0
  endloop
endfacet
facet normal -0.0 -1.0 0.0
  outer loop
    vertex 70.0283124311519 15.104845274815588 5.0
    vertex 75.02831243115192 15.104845274815588 7.5
    vertex 70.0283124311519 15.104845274815588 7.5
  endloop
endfacet
facet normal 1.0 0.0 0.0
  outer loop
    vertex 70.0283124311519 15.104845274815592 12.500000000000002
    vertex 70.0283124311519 12.60484527481559 15.0
    vertex 70.0283124311519 12.60484527481559 12.500000000000002
  endloop
endfacet
facet normal 1.0 0.0 0.0
  outer loop
    vertex 70.0283124311519 12.60484527481559 15.0
    vertex 70.0283124311519 15.104845274815592 12.500000000000002
    vertex 70.0283124311519 15.104845274815592 15.0
  endloop
endfacet
facet normal -0.0 -0.0 -1.0
  outer loop
    vertex 75.02831243115192 15.104845274815592 15.0
    vertex 70.0283124311519 12.60484527481559 15.0
    vertex 70.0283124311519 15.104845274815592 15.0
  endloop
endfacet
facet normal -0.0 -0.0 -1.0
  outer loop
    vertex 70.0283124311519 12.60484527481559 15.0
    vertex 75.02831243115192 15.104845274815592 15.0
    vertex 75.02831243115192 12.60484527481559 15.0
  endloop
endfacet
facet normal 0.0 1.0 0.0
  outer loop
    vertex 70.0283124311519 12.60484527481559 15.0
    vertex 75.02831243115192 12.60484527481559 12.500000000000002
    vertex 70.0283124311519 12.60484527481559 12.500000000000002
  endloop
endfacet
facet normal 0.0 1.0 0.0
  outer loop
    vertex 75.02831243115192 12.60484527481559 12.500000000000002
    vertex 70.0283124311519 12.60484527481559 15.0
    vertex 75.02831243115192 12.60484527481559 15.0
  endloop
endfacet
facet normal -0.0 -0.0 1.0
  outer loop
    vertex 75.02831243115192 12.60484527481559 12.500000000000002
    vertex 70.0283124311519 15.104845274815592 12.500000000000002
    vertex 70.0283124311519 12.60484527481559 12.500000000000002
  endloop
endfacet
facet normal -0.0 -0.0 1.0
  outer loop
    vertex 70.0283124311519 15.104845274815592 12.500000000000002
    vertex 75.02831243115192 12.60484527481559 12.500000000000002
    vertex 75.02831243115192 15.104845274815592 12.500000000000002
  endloop
endfacet
facet normal -0.0 -1.0 0.0
  outer loop
    vertex 75.02831243115192 15.104845274815592 15.0
    vertex 70.0283124311519 15.104845274815592 12.500000000000002
    vertex 75.02831243115192 15.104845274815592 12.500000000000002
  endloop
endfacet
facet normal -0.0 -1.0 0.0
  outer loop
    vertex 70.0283124311519 15.104845274815592 12.500000000000002
    vertex 75.02831243115192 15.104845274815592 15.0
    vertex 70.0283124311519 15.104845274815592 15.0
  endloop
endfacet
facet normal -1.0 0.0 0.0
  outer loop
    vertex -74.97168756884808 -4.895154725184412 20.0
    vertex -74.97168756884808 -9.895154725184412 7.5
    vertex -74.97168756884808 -19.895154725184412 0.0
  endloop
endfacet
facet normal -1.0 0.0 0.0
  outer loop
    vertex -74.97168756884808 -9.895154725184412 7.5
    vertex -74.97168756884808 -4.895154725184412 20.0
    vertex -74.97168756884808 -7.395154725184413 7.5
  endloop
endfacet
facet normal -1.0 0.0 0.0
  outer loop
    vertex -74.97168756884808 -7.395154725184413 7.5
    vertex -74.97168756884808 -4.895154725184412 20.0
    vertex -74.97168756884808 -7.395154725184413 5.0
  endloop
endfacet
facet normal -1.0 0.0 0.0
  outer loop
    vertex -74.97168756884808 20.104845274815588 20.0
    vertex -74.97168756884808 12.60484527481559 15.0
    vertex -74.97168756884808 -4.895154725184412 20.0
  endloop
endfacet
facet normal -1.0 0.0 0.0
  outer loop
    vertex -74.97168756884808 12.60484527481559 15.0
    vertex -74.97168756884808 20.104845274815588 20.0
    vertex -74.97168756884808 15.104845274815592 15.0
  endloop
endfacet
facet normal -1.0 0.0 0.0
  outer loop
    vertex -74.97168756884808 15.104845274815592 15.0
    vertex -74.97168756884808 20.104845274815588 20.0
    vertex -74.97168756884808 15.104845274815592 12.500000000000002
  endloop
endfacet
facet normal -1.0 0.0 0.0
  outer loop
    vertex -74.97168756884808 15.104845274815592 12.500000000000002
    vertex -74.97168756884808 20.104845274815588 20.0
    vertex -74.97168756884808 15.104845274815592 7.5
  endloop
endfacet
facet normal -1.0 0.0 0.0
  outer loop
    vertex -74.97168756884808 15.104845274815592 7.5
    vertex -74.97168756884808 20.104845274815588 20.0
    vertex -74.97168756884808 15.104845274815592 5.0
  endloop
endfacet
facet normal -1.0 0.0 0.0
  outer loop
    vertex -74.97168756884808 -19.895154725184412 0.0
    vertex -74.97168756884808 -9.895154725184412 5.0
    vertex -74.97168756884808 20.104845274815588 0.0
  endloop
endfacet
facet normal -1.0 0.0 0.0
  outer loop
    vertex -74.97168756884808 -9.895154725184412 5.0
    vertex -74.97168756884808 -19.895154725184412 0.0
    vertex -74.97168756884808 -9.895154725184412 7.5
  endloop
endfacet
facet normal -1.0 0.0 0.0
  outer loop
    vertex -74.97168756884808 20.104845274815588 0.0
    vertex -74.97168756884808 -9.895154725184412 5.0
    vertex -74.97168756884808 -7.395154725184413 5.0
  endloop
endfacet
facet normal -1.0 0.0 0.0
  outer loop
    vertex -74.97168756884808 20.104845274815588 0.0
    vertex -74.97168756884808 -7.395154725184413 5.0
    vertex -74.97168756884808 12.60484527481559 5.0
  endloop
endfacet
facet normal -1.0 0.0 0.0
  outer loop
    vertex -74.97168756884808 12.60484527481559 5.0
    vertex -74.97168756884808 -7.395154725184413 5.0
    vertex -74.97168756884808 -4.895154725184412 20.0
  endloop
endfacet
facet normal -1.0 0.0 0.0
  outer loop
    vertex -74.97168756884808 12.60484527481559 5.0
    vertex -74.97168756884808 -4.895154725184412 20.0
    vertex -74.97168756884808 12.60484527481559 15.0
  endloop
endfacet
facet normal -1.0 0.0 0.0
  outer loop
    vertex -74.97168756884808 12.60484527481559 5.0
    vertex -74.97168756884808 12.60484527481559 15.0
    vertex -74.97168756884808 12.60484527481559 12.500000000000002
  endloop
endfacet
facet normal -1.0 0.0 0.0
  outer loop
    vertex -74.97168756884808 12.60484527481559 5.0
    vertex -74.97168756884808 12.60484527481559 12.500000000000002
    vertex -74.97168756884808 12.60484527481559 7.5
  endloop
endfacet
facet normal -1.0 0.0 0.0
  outer loop
    vertex -74.97168756884808 20.104845274815588 0.0
    vertex -74.97168756884808 12.60484527481559 5.0
    vertex -74.97168756884808 15.104845274815592 5.0
  endloop
endfacet
facet normal -1.0 0.0 0.0
  outer loop
    vertex -74.97168756884808 20.104845274815588 0.0
    vertex -74.97168756884808 15.104845274815592 5.0
    vertex -74.97168756884808 20.104845274815588 20.0
  endloop
endfacet
facet normal -1.0 0.0 0.0
  outer loop
    vertex -74.97168756884808 15.104845274815592 12.500000000000002
    vertex -74.97168756884808 12.60484527481559 7.5
    vertex -74.97168756884808 12.60484527481559 12.500000000000002
  endloop
endfacet
facet normal -1.0 0.0 0.0
  outer loop
    vertex -74.97168756884808 12.60484527481559 7.5
    vertex -74.97168756884808 15.104845274815592 12.500000000000002
    vertex -74.97168756884808 15.104845274815592 7.5
  endloop
endfacet
facet normal -1.0 0.0 0.0
  outer loop
    vertex -79.97168756884808 15.104845274815592 15.0
    vertex -79.97168756884808 12.60484527481559 12.500000000000002
    vertex -79.97168756884808 12.60484527481559 15.0
  endloop
endfacet
facet normal -1.0 0.0 0.0
  outer loop
    vertex -79.97168756884808 12.60484527481559 12.500000000000002
    vertex -79.97168756884808 15.104845274815592 15.0
    vertex -79.97168756884808 15.104845274815592 12.500000000000002
  endloop
endfacet
facet normal 0.0 -0.0 1.0
  outer loop
    vertex -74.97168756884808 12.60484527481559 15.0
    vertex -79.97168756884808 15.104845274815592 15.0
    vertex -79.97168756884808 12.60484527481559 15.0
  endloop
endfacet
facet normal 0.0 -0.0 1.0
  outer loop
    vertex -79.97168756884808 15.104845274815592 15.0
    vertex -74.97168756884808 12.60484527481559 15.0
    vertex -74.97168756884808 15.104845274815592 15.0
  endloop
endfacet
facet normal 0.0 1.0 0.0
  outer loop
    vertex -79.97168756884808 15.104845274815592 15.0
    vertex -74.97168756884808 15.104845274815592 12.500000000000002
    vertex -79.97168756884808 15.104845274815592 12.500000000000002
  endloop
endfacet
facet normal 0.0 1.0 0.0
  outer loop
    vertex -74.97168756884808 15.104845274815592 12.500000000000002
    vertex -79.97168756884808 15.104845274815592 15.0
    vertex -74.97168756884808 15.104845274815592 15.0
  endloop
endfacet
facet normal -0.0 -0.0 -1.0
  outer loop
    vertex -74.97168756884808 15.104845274815592 12.500000000000002
    vertex -79.97168756884808 12.60484527481559 12.500000000000002
    vertex -79.97168756884808 15.104845274815592 12.500000000000002
  endloop
endfacet
facet normal -0.0 -0.0 -1.0
  outer loop
    vertex -79.97168756884808 12.60484527481559 12.500000000000002
    vertex -74.97168756884808 15.104845274815592 12.500000000000002
    vertex -74.97168756884808 12.60484527481559 12.500000000000002
  endloop
endfacet
facet normal 0.0 -1.0 0.0
  outer loop
    vertex -74.97168756884808 12.60484527481559 15.0
    vertex -79.97168756884808 12.60484527481559 12.500000000000002
    vertex -74.97168756884808 12.60484527481559 12.500000000000002
  endloop
endfacet
facet normal 0.0 -1.0 0.0
  outer loop
    vertex -79.97168756884808 12.60484527481559 12.500000000000002
    vertex -74.97168756884808 12.60484527481559 15.0
    vertex -79.97168756884808 12.60484527481559 15.0
  endloop
endfacet
facet normal -1.0 0.0 0.0
  outer loop
    vertex -79.97168756884808 15.104845274815592 7.5
    vertex -79.97168756884808 12.60484527481559 5.0
    vertex -79.97168756884808 12.60484527481559 7.5
  endloop
endfacet
facet normal -1.0 0.0 0.0
  outer loop
    vertex -79.97168756884808 12.60484527481559 5.0
    vertex -79.97168756884808 15.104845274815592 7.5
    vertex -79.97168756884808 15.104845274815592 5.0
  endloop
endfacet
facet normal 0.0 -1.0 0.0
  outer loop
    vertex -74.97168756884808 12.60484527481559 7.5
    vertex -79.97168756884808 12.60484527481559 5.0
    vertex -74.97168756884808 12.60484527481559 5.0
  endloop
endfacet
facet normal 0.0 -1.0 0.0
  outer loop
    vertex -79.97168756884808 12.60484527481559 5.0
    vertex -74.97168756884808 12.60484527481559 7.5
    vertex -79.97168756884808 12.60484527481559 7.5
  endloop
endfacet
facet normal 0.0 -0.0 1.0
  outer loop
    vertex -74.97168756884808 12.60484527481559 7.5
    vertex -79.97168756884808 15.104845274815592 7.5
    vertex -79.97168756884808 12.60484527481559 7.5
  endloop
endfacet
facet normal 0.0 -0.0 1.0
  outer loop
    vertex -79.97168756884808 15.104845274815592 7.5
    vertex -74.97168756884808 12.60484527481559 7.5
    vertex -74.97168756884808 15.104845274815592 7.5
  endloop
endfacet
facet normal 0.0 1.0 0.0
  outer loop
    vertex -79.97168756884808 15.104845274815592 7.5
    vertex -74.97168756884808 15.104845274815592 5.0
    vertex -79.97168756884808 15.104845274815592 5.0
  endloop
endfacet
facet normal 0.0 1.0 0.0
  outer loop
    vertex -74.97168756884808 15.104845274815592 5.0
    vertex -79.97168756884808 15.104845274815592 7.5
    vertex -74.97168756884808 15.104845274815592 7.5
  endloop
endfacet
facet normal -0.0 -0.0 -1.0
  outer loop
    vertex -74.97168756884808 15.104845274815592 5.0
    vertex -79.97168756884808 12.60484527481559 5.0
    vertex -79.97168756884808 15.104845274815592 5.0
  endloop
endfacet
facet normal -0.0 -0.0 -1.0
  outer loop
    vertex -79.97168756884808 12.60484527481559 5.0
    vertex -74.97168756884808 15.104845274815592 5.0
    vertex -74.97168756884808 12.60484527481559 5.0
  endloop
endfacet
facet normal -1.0 0.0 0.0
  outer loop
    vertex -79.97168756884808 -7.395154725184413 7.5
    vertex -79.97168756884808 -9.895154725184412 5.0
    vertex -79.97168756884808 -9.895154725184412 7.5
  endloop
endfacet
facet normal -1.0 0.0 0.0
  outer loop
    vertex -79.97168756884808 -9.895154725184412 5.0
    vertex -79.97168756884808 -7.395154725184413 7.5
    vertex -79.97168756884808 -7.395154725184413 5.0
  endloop
endfacet
facet normal 0.0 -0.0 1.0
  outer loop
    vertex -74.97168756884808 -9.895154725184412 7.5
    vertex -79.97168756884808 -7.395154725184413 7.5
    vertex -79.97168756884808 -9.895154725184412 7.5
  endloop
endfacet
facet normal 0.0 -0.0 1.0
  outer loop
    vertex -79.97168756884808 -7.395154725184413 7.5
    vertex -74.97168756884808 -9.895154725184412 7.5
    vertex -74.97168756884808 -7.395154725184413 7.5
  endloop
endfacet
facet normal 0.0 1.0 0.0
  outer loop
    vertex -79.97168756884808 -7.395154725184413 7.5
    vertex -74.97168756884808 -7.395154725184413 5.0
    vertex -79.97168756884808 -7.395154725184413 5.0
  endloop
endfacet
facet normal 0.0 1.0 0.0
  outer loop
    vertex -74.97168756884808 -7.395154725184413 5.0
    vertex -79.97168756884808 -7.395154725184413 7.5
    vertex -74.97168756884808 -7.395154725184413 7.5
  endloop
endfacet
facet normal -0.0 -0.0 -1.0
  outer loop
    vertex -74.97168756884808 -7.395154725184413 5.0
    vertex -79.97168756884808 -9.895154725184412 5.0
    vertex -79.97168756884808 -7.395154725184413 5.0
  endloop
endfacet
facet normal -0.0 -0.0 -1.0
  outer loop
    vertex -79.97168756884808 -9.895154725184412 5.0
    vertex -74.97168756884808 -7.395154725184413 5.0
    vertex -74.97168756884808 -9.895154725184412 5.0
  endloop
endfacet
facet normal 0.0 -1.0 0.0
  outer loop
    vertex -74.97168756884808 -9.895154725184412 7.5
    vertex -79.97168756884808 -9.895154725184412 5.0
    vertex -74.97168756884808 -9.895154725184412 5.0
  endloop
endfacet
facet normal 0.0 -1.0 0.0
  outer loop
    vertex -79.97168756884808 -9.895154725184412 5.0
    vertex -74.97168756884808 -9.895154725184412 7.5
    vertex -79.97168756884808 -9.895154725184412 7.5
  endloop
endfacet
facet normal -0.0 -0.0 1.0
  outer loop
    vertex -74.97168756884808 -4.895154725184412 20.0
    vertex -68.97168756884808 4.853351392315061 19.999999999999993
    vertex -74.97168756884808 20.104845274815588 20.0
  endloop
endfacet
facet normal -0.0 -0.0 1.0
  outer loop
    vertex -68.97168756884808 4.853351392315061 19.999999999999993
    vertex -74.97168756884808 -4.895154725184412 20.0
    vertex -50.97168756884808 -4.895154725184412 20.0
  endloop
endfacet
facet normal -0.0 -0.0 1.0
  outer loop
    vertex -68.97168756884808 4.853351392315061 19.999999999999993
    vertex -50.97168756884808 -4.895154725184412 20.0
    vertex -55.97168756884808 4.853351392315061 19.999999999999993
  endloop
endfacet
facet normal -0.0 -0.0 1.0
  outer loop
    vertex -55.97168756884808 4.853351392315061 19.999999999999993
    vertex -50.97168756884808 -4.895154725184412 20.0
    vertex -55.97168756884808 10.35335139231506 19.999999999999993
  endloop
endfacet
facet normal -0.0 -0.0 1.0
  outer loop
    vertex -74.97168756884808 20.104845274815588 20.0
    vertex -68.97168756884808 10.35335139231506 19.999999999999993
    vertex -50.97168756884808 20.104845274815588 20.0
  endloop
endfacet
facet normal -0.0 -0.0 1.0
  outer loop
    vertex -68.97168756884808 10.35335139231506 19.999999999999993
    vertex -74.97168756884808 20.104845274815588 20.0
    vertex -68.97168756884808 4.853351392315061 19.999999999999993
  endloop
endfacet
facet normal -0.0 -0.0 1.0
  outer loop
    vertex -50.97168756884808 20.104845274815588 20.0
    vertex -68.97168756884808 10.35335139231506 19.999999999999993
    vertex -55.97168756884808 10.35335139231506 19.999999999999993
  endloop
endfacet
facet normal -0.0 -0.0 1.0
  outer loop
    vertex -50.97168756884808 20.104845274815588 20.0
    vertex -55.97168756884808 10.35335139231506 19.999999999999993
    vertex -50.97168756884808 -4.895154725184412 20.0
  endloop
endfacet
facet normal -0.0 -0.0 1.0
  outer loop
    vertex -48.97168756884808 -4.895154725184412 20.0
    vertex -44.04717810594266 4.855829999961164 19.999999999999993
    vertex -48.97168756884808 20.104845274815588 20.0
  endloop
endfacet
facet normal -0.0 -0.0 1.0
  outer loop
    vertex -44.04717810594266 4.855829999961164 19.999999999999993
    vertex -48.97168756884808 -4.895154725184412 20.0
    vertex -25.971687568848083 -4.895154725184412 20.0
  endloop
endfacet
facet normal -0.0 -0.0 1.0
  outer loop
    vertex -44.04717810594266 4.855829999961164 19.999999999999993
    vertex -25.971687568848083 -4.895154725184412 20.0
    vertex -31.047178105942667 4.855829999961164 19.999999999999993
  endloop
endfacet
facet normal -0.0 -0.0 1.0
  outer loop
    vertex -31.047178105942667 4.855829999961164 19.999999999999993
    vertex -25.971687568848083 -4.895154725184412 20.0
    vertex -31.047178105942667 10.355829999961163 19.999999999999993
  endloop
endfacet
facet normal -0.0 -0.0 1.0
  outer loop
    vertex -48.97168756884808 20.104845274815588 20.0
    vertex -44.04717810594266 10.355829999961163 19.999999999999993
    vertex -25.971687568848083 20.104845274815588 20.0
  endloop
endfacet
facet normal -0.0 -0.0 1.0
  outer loop
    vertex -44.04717810594266 10.355829999961163 19.999999999999993
    vertex -48.97168756884808 20.104845274815588 20.0
    vertex -44.04717810594266 4.855829999961164 19.999999999999993
  endloop
endfacet
facet normal -0.0 -0.0 1.0
  outer loop
    vertex -25.971687568848083 20.104845274815588 20.0
    vertex -44.04717810594266 10.355829999961163 19.999999999999993
    vertex -31.047178105942667 10.355829999961163 19.999999999999993
  endloop
endfacet
facet normal -0.0 -0.0 1.0
  outer loop
    vertex -25.971687568848083 20.104845274815588 20.0
    vertex -31.047178105942667 10.355829999961163 19.999999999999993
    vertex -25.971687568848083 -4.895154725184412 20.0
  endloop
endfacet
facet normal -0.0 -0.0 1.0
  outer loop
    vertex -23.971687568848086 -4.895154725184412 20.0
    vertex -18.98516107811043 4.91311633589354 19.999999999999993
    vertex -23.971687568848086 20.104845274815588 20.0
  endloop
endfacet
facet normal -0.0 -0.0 1.0
  outer loop
    vertex -18.98516107811043 4.91311633589354 19.999999999999993
    vertex -23.971687568848086 -4.895154725184412 20.0
    vertex -0.9716875688480862 -4.895154725184412 20.0
  endloop
endfacet
facet normal -0.0 -0.0 1.0
  outer loop
    vertex -18.98516107811043 4.91311633589354 19.999999999999993
    vertex -0.9716875688480862 -4.895154725184412 20.0
    vertex -5.985161078110432 4.91311633589354 19.999999999999993
  endloop
endfacet
facet normal -0.0 -0.0 1.0
  outer loop
    vertex -5.985161078110432 4.91311633589354 19.999999999999993
    vertex -0.9716875688480862 -4.895154725184412 20.0
    vertex -5.985161078110432 10.41311633589354 19.999999999999993
  endloop
endfacet
facet normal -0.0 -0.0 1.0
  outer loop
    vertex -23.971687568848086 20.104845274815588 20.0
    vertex -18.98516107811043 10.41311633589354 19.999999999999993
    vertex -0.9716875688480862 20.104845274815588 20.0
  endloop
endfacet
facet normal -0.0 -0.0 1.0
  outer loop
    vertex -18.98516107811043 10.41311633589354 19.999999999999993
    vertex -23.971687568848086 20.104845274815588 20.0
    vertex -18.98516107811043 4.91311633589354 19.999999999999993
  endloop
endfacet
facet normal -0.0 -0.0 1.0
  outer loop
    vertex -0.9716875688480862 20.104845274815588 20.0
    vertex -18.98516107811043 10.41311633589354 19.999999999999993
    vertex -5.985161078110432 10.41311633589354 19.999999999999993
  endloop
endfacet
facet normal -0.0 -0.0 1.0
  outer loop
    vertex -0.9716875688480862 20.104845274815588 20.0
    vertex -5.985161078110432 10.41311633589354 19.999999999999993
    vertex -0.9716875688480862 -4.895154725184412 20.0
  endloop
endfacet
facet normal -0.0 -0.0 1.0
  outer loop
    vertex 1.0283124311519136 -4.895154725184412 20.0
    vertex 5.994807293021253 4.913128915723169 19.999999999999993
    vertex 1.0283124311519136 20.104845274815588 20.0
  endloop
endfacet
facet normal -0.0 -0.0 1.0
  outer loop
    vertex 5.994807293021253 4.913128915723169 19.999999999999993
    vertex 1.0283124311519136 -4.895154725184412 20.0
    vertex 24.028312431151914 -4.895154725184412 20.0
  endloop
endfacet
facet normal -0.0 -0.0 1.0
  outer loop
    vertex 5.994807293021253 4.913128915723169 19.999999999999993
    vertex 24.028312431151914 -4.895154725184412 20.0
    vertex 18.99480729302125 4.913128915723169 19.999999999999993
  endloop
endfacet
facet normal -0.0 -0.0 1.0
  outer loop
    vertex 18.99480729302125 4.913128915723169 19.999999999999993
    vertex 24.028312431151914 -4.895154725184412 20.0
    vertex 18.99480729302125 10.413128915723169 19.999999999999993
  endloop
endfacet
facet normal -0.0 -0.0 1.0
  outer loop
    vertex 1.0283124311519136 20.104845274815588 20.0
    vertex 5.994807293021253 10.413128915723169 19.999999999999993
    vertex 24.028312431151914 20.104845274815588 20.0
  endloop
endfacet
facet normal -0.0 -0.0 1.0
  outer loop
    vertex 5.994807293021253 10.413128915723169 19.999999999999993
    vertex 1.0283124311519136 20.104845274815588 20.0
    vertex 5.994807293021253 4.913128915723169 19.999999999999993
  endloop
endfacet
facet normal -0.0 -0.0 1.0
  outer loop
    vertex 24.028312431151914 20.104845274815588 20.0
    vertex 5.994807293021253 10.413128915723169 19.999999999999993
    vertex 18.99480729302125 10.413128915723169 19.999999999999993
  endloop
endfacet
facet normal -0.0 -0.0 1.0
  outer loop
    vertex 24.028312431151914 20.104845274815588 20.0
    vertex 18.99480729302125 10.413128915723169 19.999999999999993
    vertex 24.028312431151914 -4.895154725184412 20.0
  endloop
endfacet
facet normal -0.0 -0.0 1.0
  outer loop
    vertex 26.02831243115191 -4.895154725184412 20.0
    vertex 30.968501060344888 4.88844673808857 19.999999999999996
    vertex 26.02831243115191 20.104845274815588 20.0
  endloop
endfacet
facet normal -0.0 -0.0 1.0
  outer loop
    vertex 30.968501060344888 4.88844673808857 19.999999999999996
    vertex 26.02831243115191 -4.895154725184412 20.0
    vertex 49.02831243115192 -4.895154725184412 20.0
  endloop
endfacet
facet normal -0.0 -0.0 1.0
  outer loop
    vertex 30.968501060344888 4.88844673808857 19.999999999999996
    vertex 49.02831243115192 -4.895154725184412 20.0
    vertex 43.968501060344884 4.88844673808857 19.999999999999996
  endloop
endfacet
facet normal -0.0 -0.0 1.0
  outer loop
    vertex 43.968501060344884 4.88844673808857 19.999999999999996
    vertex 49.02831243115192 -4.895154725184412 20.0
    vertex 43.968501060344884 10.38844673808857 19.999999999999996
  endloop
endfacet
facet normal -0.0 -0.0 1.0
  outer loop
    vertex 26.02831243115191 20.104845274815588 20.0
    vertex 30.968501060344888 10.38844673808857 19.999999999999996
    vertex 49.02831243115192 20.104845274815588 20.0
  endloop
endfacet
facet normal -0.0 -0.0 1.0
  outer loop
    vertex 30.968501060344888 10.38844673808857 19.999999999999996
    vertex 26.02831243115191 20.104845274815588 20.0
    vertex 30.968501060344888 4.88844673808857 19.999999999999996
  endloop
endfacet
facet normal -0.0 -0.0 1.0
  outer loop
    vertex 49.02831243115192 20.104845274815588 20.0
    vertex 30.968501060344888 10.38844673808857 19.999999999999996
    vertex 43.968501060344884 10.38844673808857 19.999999999999996
  endloop
endfacet
facet normal -0.0 -0.0 1.0
  outer loop
    vertex 49.02831243115192 20.104845274815588 20.0
    vertex 43.968501060344884 10.38844673808857 19.999999999999996
    vertex 49.02831243115192 -4.895154725184412 20.0
  endloop
endfacet
facet normal -0.0 -0.0 1.0
  outer loop
    vertex 51.02831243115191 -4.895154725184412 20.0
    vertex 55.98720760437087 4.849753685853213 19.999999999999993
    vertex 51.02831243115191 20.104845274815588 20.0
  endloop
endfacet
facet normal -0.0 -0.0 1.0
  outer loop
    vertex 55.98720760437087 4.849753685853213 19.999999999999993
    vertex 51.02831243115191 -4.895154725184412 20.0
    vertex 75.02831243115192 -4.895154725184409 20.0
  endloop
endfacet
facet normal -0.0 -0.0 1.0
  outer loop
    vertex 55.98720760437087 4.849753685853213 19.999999999999993
    vertex 75.02831243115192 -4.895154725184409 20.0
    vertex 68.98720760437087 4.849753685853213 19.999999999999993
  endloop
endfacet
facet normal -0.0 -0.0 1.0
  outer loop
    vertex 68.98720760437087 4.849753685853213 19.999999999999993
    vertex 75.02831243115192 -4.895154725184409 20.0
    vertex 68.98720760437087 10.349753685853212 19.999999999999993
  endloop
endfacet
facet normal -0.0 -0.0 1.0
  outer loop
    vertex 51.02831243115191 20.104845274815588 20.0
    vertex 55.98720760437087 10.349753685853212 19.999999999999993
    vertex 75.02831243115192 20.104845274815588 20.0
  endloop
endfacet
facet normal -0.0 -0.0 1.0
  outer loop
    vertex 55.98720760437087 10.349753685853212 19.999999999999993
    vertex 51.02831243115191 20.104845274815588 20.0
    vertex 55.98720760437087 4.849753685853213 19.999999999999993
  endloop
endfacet
facet normal -0.0 -0.0 1.0
  outer loop
    vertex 75.02831243115192 20.104845274815588 20.0
    vertex 55.98720760437087 10.349753685853212 19.999999999999993
    vertex 68.98720760437087 10.349753685853212 19.999999999999993
  endloop
endfacet
facet normal -0.0 -0.0 1.0
  outer loop
    vertex 75.02831243115192 20.104845274815588 20.0
    vertex 68.98720760437087 10.349753685853212 19.999999999999993
    vertex 75.02831243115192 -4.895154725184409 20.0
  endloop
endfacet
facet normal 2.0310155573738173e-17 -0.7999999999999997 0.6000000000000005
  outer loop
    vertex 24.028312431151914 -4.895154725184412 20.0
    vertex 1.0283124311519127 -19.895154725184423 8.459899447643692e-15
    vertex 24.028312431151914 -19.895154725184426 5.639932965095795e-15
  endloop
endfacet
facet normal 2.0310155573738173e-17 -0.7999999999999997 0.6000000000000005
  outer loop
    vertex 1.0283124311519127 -19.895154725184423 8.459899447643692e-15
    vertex 24.028312431151914 -4.895154725184412 20.0
    vertex 1.0283124311519136 -4.895154725184412 20.0
  endloop
endfacet
facet normal 2.3695181502694527e-16 -0.7999999999999997 0.6000000000000003
  outer loop
    vertex 49.02831243115192 -4.895154725184412 20.0
    vertex 26.02831243115191 -19.895154725184423 8.459899447643692e-15
    vertex 49.02831243115192 -19.895154725184423 -5.639932965095795e-15
  endloop
endfacet
facet normal 2.3695181502694527e-16 -0.7999999999999997 0.6000000000000003
  outer loop
    vertex 26.02831243115191 -19.895154725184423 8.459899447643692e-15
    vertex 49.02831243115192 -4.895154725184412 20.0
    vertex 26.02831243115191 -4.895154725184412 20.0
  endloop
endfacet
facet normal -6.770051857912721e-17 -0.8 0.6
  outer loop
    vertex -25.971687568848083 -4.895154725184412 20.0
    vertex -48.97168756884808 -19.895154725184412 0.0
    vertex -25.971687568848083 -19.89515472518442 -5.639932965095795e-15
  endloop
endfacet
facet normal -6.770051857912721e-17 -0.8 0.6
  outer loop
    vertex -48.97168756884808 -19.895154725184412 0.0
    vertex -25.971687568848083 -4.895154725184412 20.0
    vertex -48.97168756884808 -4.895154725184412 20.0
  endloop
endfacet
facet normal -3.5881274846937427e-16 -0.7999999999999998 0.6000000000000002
  outer loop
    vertex -0.9716875688480873 -19.895154725184426 5.639932965095795e-15
    vertex -23.971687568848086 -4.895154725184412 20.0
    vertex -23.971687568848086 -19.895154725184412 0.0
  endloop
endfacet
facet normal -3.5881274846937427e-16 -0.7999999999999998 0.6000000000000002
  outer loop
    vertex -23.971687568848086 -4.895154725184412 20.0
    vertex -0.9716875688480873 -19.895154725184426 5.639932965095795e-15
    vertex -0.9716875688480862 -4.895154725184412 20.0
  endloop
endfacet
facet normal -4.352344102404653e-17 -0.8 0.6000000000000001
  outer loop
    vertex -50.97168756884808 -4.895154725184412 20.0
    vertex -74.97168756884808 -19.895154725184412 0.0
    vertex -50.97168756884808 -19.89515472518442 -5.639932965095795e-15
  endloop
endfacet
facet normal -4.352344102404653e-17 -0.8 0.6000000000000001
  outer loop
    vertex -74.97168756884808 -19.895154725184412 0.0
    vertex -50.97168756884808 -4.895154725184412 20.0
    vertex -74.97168756884808 -4.895154725184412 20.0
  endloop
endfacet
facet normal 0.0 0.0 1.0
  outer loop
    vertex -48.97168756884808 -4.895154725184412 22.0
    vertex -50.97168756884808 20.104845274815588 22.0
    vertex -50.97168756884808 -4.895154725184412 22.0
  endloop
endfacet
facet normal 0.0 0.0 1.0
  outer loop
    vertex -50.97168756884808 20.104845274815588 22.0
    vertex -48.97168756884808 -4.895154725184412 22.0
    vertex -48.97168756884808 20.104845274815588 22.0
  endloop
endfacet
facet normal -1.0 -0.0 -0.0
  outer loop
    vertex -50.97168756884808 20.104845274815588 22.0
    vertex -50.97168756884808 -4.895154725184412 20.0
    vertex -50.97168756884808 -4.895154725184412 22.0
  endloop
endfacet
facet normal -1.0 -0.0 -0.0
  outer loop
    vertex -50.97168756884808 -4.895154725184412 20.0
    vertex -50.97168756884808 20.104845274815588 22.0
    vertex -50.97168756884808 20.104845274815588 20.0
  endloop
endfacet
facet normal 1.0 -0.0 0.0
  outer loop
    vertex -48.97168756884808 20.104845274815588 20.0
    vertex -48.97168756884808 -4.895154725184412 22.0
    vertex -48.97168756884808 -4.895154725184412 20.0
  endloop
endfacet
facet normal 1.0 -0.0 0.0
  outer loop
    vertex -48.97168756884808 -4.895154725184412 22.0
    vertex -48.97168756884808 20.104845274815588 20.0
    vertex -48.97168756884808 20.104845274815588 22.0
  endloop
endfacet
facet normal 3.3575225932835334e-16 -0.8 0.6000000000000002
  outer loop
    vertex -48.97168756884808 -21.495154725184413 1.2000000000000002
    vertex -50.97168756884808 -6.4951547251844115 21.2
    vertex -50.97168756884808 -21.495154725184417 1.1999999999999946
  endloop
endfacet
facet normal 3.3575225932835334e-16 -0.8 0.6000000000000002
  outer loop
    vertex -50.97168756884808 -6.4951547251844115 21.2
    vertex -48.97168756884808 -21.495154725184413 1.2000000000000002
    vertex -48.97168756884808 -6.4951547251844115 21.2
  endloop
endfacet
facet normal -1.0 -2.6860180746268263e-16 2.01451355597012e-16
  outer loop
    vertex -50.97168756884808 -6.4951547251844115 21.2
    vertex -50.97168756884808 -19.89515472518442 -5.639932965095795e-15
    vertex -50.97168756884808 -21.495154725184417 1.1999999999999946
  endloop
endfacet
facet normal -1.0 -2.6860180746268263e-16 2.01451355597012e-16
  outer loop
    vertex -50.97168756884808 -19.89515472518442 -5.639932965095795e-15
    vertex -50.97168756884808 -6.4951547251844115 21.2
    vertex -50.97168756884808 -4.895154725184412 20.0
  endloop
endfacet
facet normal 3.947953075567053e-15 -0.6000000000000002 -0.8
  outer loop
    vertex -48.97168756884808 -19.895154725184412 0.0
    vertex -50.97168756884808 -21.495154725184417 1.1999999999999946
    vertex -50.97168756884808 -19.89515472518442 -5.639932965095795e-15
  endloop
endfacet
facet normal 3.947953075567053e-15 -0.6000000000000002 -0.8
  outer loop
    vertex -50.97168756884808 -21.495154725184417 1.1999999999999946
    vertex -48.97168756884808 -19.895154725184412 0.0
    vertex -48.97168756884808 -21.495154725184413 1.2000000000000002
  endloop
endfacet
facet normal 1.0 2.6860180746268263e-16 -2.0145135559701198e-16
  outer loop
    vertex -48.97168756884808 -19.895154725184412 0.0
    vertex -48.97168756884808 -6.4951547251844115 21.2
    vertex -48.97168756884808 -21.495154725184413 1.2000000000000002
  endloop
endfacet
facet normal 1.0 2.6860180746268263e-16 -2.0145135559701198e-16
  outer loop
    vertex -48.97168756884808 -6.4951547251844115 21.2
    vertex -48.97168756884808 -19.895154725184412 0.0
    vertex -48.97168756884808 -4.895154725184412 20.0
  endloop
endfacet
facet normal 1.6787612966417867e-16 -0.8 0.6000000000000001
  outer loop
    vertex -23.971687568848086 -21.495154725184413 1.2000000000000002
    vertex -25.971687568848083 -6.4951547251844115 21.2
    vertex -25.971687568848083 -21.495154725184417 1.1999999999999944
  endloop
endfacet
facet normal 1.6787612966417867e-16 -0.8 0.6000000000000001
  outer loop
    vertex -25.971687568848083 -6.4951547251844115 21.2
    vertex -23.971687568848086 -21.495154725184413 1.2000000000000002
    vertex -23.971687568848086 -6.4951547251844115 21.2
  endloop
endfacet
facet normal 3.947953075567064e-15 -0.6000000000000001 -0.7999999999999999
  outer loop
    vertex -23.971687568848086 -19.895154725184412 0.0
    vertex -25.971687568848083 -21.495154725184417 1.1999999999999944
    vertex -25.971687568848083 -19.89515472518442 -5.639932965095795e-15
  endloop
endfacet
facet normal 3.947953075567064e-15 -0.6000000000000001 -0.7999999999999999
  outer loop
    vertex -25.971687568848083 -21.495154725184417 1.1999999999999944
    vertex -23.971687568848086 -19.895154725184412 0.0
    vertex -23.971687568848086 -21.495154725184413 1.2000000000000002
  endloop
endfacet
facet normal 1.0 6.662170815019338e-17 -1.9096460524003988e-16
  outer loop
    vertex -23.971687568848086 -19.895154725184412 0.0
    vertex -23.971687568848086 -6.4951547251844115 21.2
    vertex -23.971687568848086 -21.495154725184413 1.2000000000000002
  endloop
endfacet
facet normal 1.0 6.662170815019338e-17 -1.9096460524003988e-16
  outer loop
    vertex -23.971687568848086 -6.4951547251844115 21.2
    vertex -23.971687568848086 -19.895154725184412 0.0
    vertex -23.971687568848086 -4.895154725184412 20.0
  endloop
endfacet
facet normal -1.0 -1.3430090373134292e-16 1.0072567779850721e-16
  outer loop
    vertex -25.971687568848083 -6.4951547251844115 21.2
    vertex -25.971687568848083 -19.89515472518442 -5.639932965095795e-15
    vertex -25.971687568848083 -21.495154725184417 1.1999999999999944
  endloop
endfacet
facet normal -1.0 -1.3430090373134292e-16 1.0072567779850721e-16
  outer loop
    vertex -25.971687568848083 -19.89515472518442 -5.639932965095795e-15
    vertex -25.971687568848083 -6.4951547251844115 21.2
    vertex -25.971687568848083 -4.895154725184412 20.0
  endloop
endfacet
facet normal 0.0 0.0 1.0
  outer loop
    vertex -23.971687568848086 -4.895154725184412 22.0
    vertex -25.971687568848083 20.104845274815588 22.0
    vertex -25.971687568848083 -4.895154725184412 22.0
  endloop
endfacet
facet normal 0.0 0.0 1.0
  outer loop
    vertex -25.971687568848083 20.104845274815588 22.0
    vertex -23.971687568848086 -4.895154725184412 22.0
    vertex -23.971687568848086 20.104845274815588 22.0
  endloop
endfacet
facet normal 1.0 -0.0 0.0
  outer loop
    vertex -23.971687568848086 20.104845274815588 20.0
    vertex -23.971687568848086 -4.895154725184412 22.0
    vertex -23.971687568848086 -4.895154725184412 20.0
  endloop
endfacet
facet normal 1.0 -0.0 0.0
  outer loop
    vertex -23.971687568848086 -4.895154725184412 22.0
    vertex -23.971687568848086 20.104845274815588 20.0
    vertex -23.971687568848086 20.104845274815588 22.0
  endloop
endfacet
facet normal -1.0 -0.0 -0.0
  outer loop
    vertex -25.971687568848083 20.104845274815588 22.0
    vertex -25.971687568848083 -4.895154725184412 20.0
    vertex -25.971687568848083 -4.895154725184412 22.0
  endloop
endfacet
facet normal -1.0 -0.0 -0.0
  outer loop
    vertex -25.971687568848083 -4.895154725184412 20.0
    vertex -25.971687568848083 20.104845274815588 22.0
    vertex -25.971687568848083 20.104845274815588 20.0
  endloop
endfacet
facet normal 0.0 0.0 1.0
  outer loop
    vertex 1.0283124311519136 -4.895154725184412 22.0
    vertex -0.9716875688480862 20.104845274815588 22.0
    vertex -0.9716875688480862 -4.895154725184412 22.0
  endloop
endfacet
facet normal 0.0 0.0 1.0
  outer loop
    vertex -0.9716875688480862 20.104845274815588 22.0
    vertex 1.0283124311519136 -4.895154725184412 22.0
    vertex 1.0283124311519136 20.104845274815588 22.0
  endloop
endfacet
facet normal -1.0 -0.0 -0.0
  outer loop
    vertex -0.9716875688480862 20.104845274815588 22.0
    vertex -0.9716875688480862 -4.895154725184412 20.0
    vertex -0.9716875688480862 -4.895154725184412 22.0
  endloop
endfacet
facet normal -1.0 -0.0 -0.0
  outer loop
    vertex -0.9716875688480862 -4.895154725184412 20.0
    vertex -0.9716875688480862 20.104845274815588 22.0
    vertex -0.9716875688480862 20.104845274815588 20.0
  endloop
endfacet
facet normal 1.0 -0.0 0.0
  outer loop
    vertex 1.0283124311519136 20.104845274815588 20.0
    vertex 1.0283124311519136 -4.895154725184412 22.0
    vertex 1.0283124311519136 -4.895154725184412 20.0
  endloop
endfacet
facet normal 1.0 -0.0 0.0
  outer loop
    vertex 1.0283124311519136 -4.895154725184412 22.0
    vertex 1.0283124311519136 20.104845274815588 20.0
    vertex 1.0283124311519136 20.104845274815588 22.0
  endloop
endfacet
facet normal 5.59587098880554e-17 -0.7999999999999997 0.6000000000000005
  outer loop
    vertex 1.0283124311519127 -21.495154725184424 1.2000000000000095
    vertex -0.971687568848086 -6.4951547251844115 21.2
    vertex -0.971687568848087 -21.495154725184427 1.2000000000000066
  endloop
endfacet
facet normal 5.59587098880554e-17 -0.7999999999999997 0.6000000000000005
  outer loop
    vertex -0.971687568848086 -6.4951547251844115 21.2
    vertex 1.0283124311519127 -21.495154725184424 1.2000000000000095
    vertex 1.0283124311519138 -6.4951547251844115 21.2
  endloop
endfacet
facet normal 1.973976537783529e-15 -0.6000000000000005 -0.7999999999999996
  outer loop
    vertex 1.0283124311519127 -19.895154725184423 8.459899447643692e-15
    vertex -0.971687568848087 -21.495154725184427 1.2000000000000066
    vertex -0.9716875688480873 -19.895154725184426 5.639932965095795e-15
  endloop
endfacet
facet normal 1.973976537783529e-15 -0.6000000000000005 -0.7999999999999996
  outer loop
    vertex -0.971687568848087 -21.495154725184427 1.2000000000000066
    vertex 1.0283124311519127 -19.895154725184423 8.459899447643692e-15
    vertex 1.0283124311519127 -21.495154725184424 1.2000000000000095
  endloop
endfacet
facet normal 1.0 1.93872695675132e-17 -6.741482372340802e-17
  outer loop
    vertex 1.0283124311519127 -19.895154725184423 8.459899447643692e-15
    vertex 1.0283124311519138 -6.4951547251844115 21.2
    vertex 1.0283124311519127 -21.495154725184424 1.2000000000000095
  endloop
endfacet
facet normal 1.0 1.93872695675132e-17 -6.741482372340802e-17
  outer loop
    vertex 1.0283124311519138 -6.4951547251844115 21.2
    vertex 1.0283124311519127 -19.895154725184423 8.459899447643692e-15
    vertex 1.0283124311519136 -4.895154725184412 20.0
  endloop
endfacet
facet normal 0.0 0.0 1.0
  outer loop
    vertex 26.02831243115191 -4.895154725184412 22.0
    vertex 24.028312431151914 20.104845274815588 22.0
    vertex 24.028312431151914 -4.895154725184412 22.0
  endloop
endfacet
facet normal 0.0 0.0 1.0
  outer loop
    vertex 24.028312431151914 20.104845274815588 22.0
    vertex 26.02831243115191 -4.895154725184412 22.0
    vertex 26.02831243115191 20.104845274815588 22.0
  endloop
endfacet
facet normal -1.0 -0.0 -0.0
  outer loop
    vertex 24.028312431151914 20.104845274815588 22.0
    vertex 24.028312431151914 -4.895154725184412 20.0
    vertex 24.028312431151914 -4.895154725184412 22.0
  endloop
endfacet
facet normal -1.0 -0.0 -0.0
  outer loop
    vertex 24.028312431151914 -4.895154725184412 20.0
    vertex 24.028312431151914 20.104845274815588 22.0
    vertex 24.028312431151914 20.104845274815588 20.0
  endloop
endfacet
facet normal 1.0 -0.0 0.0
  outer loop
    vertex 26.02831243115191 20.104845274815588 20.0
    vertex 26.02831243115191 -4.895154725184412 22.0
    vertex 26.02831243115191 -4.895154725184412 20.0
  endloop
endfacet
facet normal 1.0 -0.0 0.0
  outer loop
    vertex 26.02831243115191 -4.895154725184412 22.0
    vertex 26.02831243115191 20.104845274815588 20.0
    vertex 26.02831243115191 20.104845274815588 22.0
  endloop
endfacet
facet normal 1.6787612966417874e-16 -0.7999999999999996 0.6000000000000005
  outer loop
    vertex 26.02831243115191 -21.495154725184424 1.2000000000000095
    vertex 24.028312431151914 -6.4951547251844115 21.2
    vertex 24.028312431151914 -21.495154725184427 1.2000000000000066
  endloop
endfacet
facet normal 1.6787612966417874e-16 -0.7999999999999996 0.6000000000000005
  outer loop
    vertex 24.028312431151914 -6.4951547251844115 21.2
    vertex 26.02831243115191 -21.495154725184424 1.2000000000000095
    vertex 26.02831243115191 -6.4951547251844115 21.2
  endloop
endfacet
facet normal 1.9739765377835292e-15 -0.6000000000000005 -0.7999999999999996
  outer loop
    vertex 26.02831243115191 -19.895154725184423 8.459899447643692e-15
    vertex 24.028312431151914 -21.495154725184427 1.2000000000000066
    vertex 24.028312431151914 -19.895154725184426 5.639932965095795e-15
  endloop
endfacet
facet normal 1.9739765377835292e-15 -0.6000000000000005 -0.7999999999999996
  outer loop
    vertex 24.028312431151914 -21.495154725184427 1.2000000000000066
    vertex 26.02831243115191 -19.895154725184423 8.459899447643692e-15
    vertex 26.02831243115191 -21.495154725184424 1.2000000000000095
  endloop
endfacet
facet normal 1.0 1.3430090373134296e-16 -1.0072567779850733e-16
  outer loop
    vertex 26.02831243115191 -19.895154725184423 8.459899447643692e-15
    vertex 26.02831243115191 -6.4951547251844115 21.2
    vertex 26.02831243115191 -21.495154725184424 1.2000000000000095
  endloop
endfacet
facet normal 1.0 1.3430090373134296e-16 -1.0072567779850733e-16
  outer loop
    vertex 26.02831243115191 -6.4951547251844115 21.2
    vertex 26.02831243115191 -19.895154725184423 8.459899447643692e-15
    vertex 26.02831243115191 -4.895154725184412 20.0
  endloop
endfacet
facet normal -1.0 -1.3430090373134292e-16 1.0072567779850733e-16
  outer loop
    vertex 24.028312431151914 -6.4951547251844115 21.2
    vertex 24.028312431151914 -19.895154725184426 5.639932965095795e-15
    vertex 24.028312431151914 -21.495154725184427 1.2000000000000066
  endloop
endfacet
facet normal -1.0 -1.3430090373134292e-16 1.0072567779850733e-16
  outer loop
    vertex 24.028312431151914 -19.895154725184426 5.639932965095795e-15
    vertex 24.028312431151914 -6.4951547251844115 21.2
    vertex 24.028312431151914 -4.895154725184412 20.0
  endloop
endfacet
facet normal 0.0 0.0 1.0
  outer loop
    vertex 51.02831243115191 -4.895154725184412 22.0
    vertex 49.02831243115192 20.104845274815588 22.0
    vertex 49.02831243115192 -4.895154725184412 22.0
  endloop
endfacet
facet normal 0.0 0.0 1.0
  outer loop
    vertex 49.02831243115192 20.104845274815588 22.0
    vertex 51.02831243115191 -4.895154725184412 22.0
    vertex 51.02831243115191 20.104845274815588 22.0
  endloop
endfacet
facet normal 1.0 -0.0 0.0
  outer loop
    vertex 51.02831243115191 20.104845274815588 20.0
    vertex 51.02831243115191 -4.895154725184412 22.0
    vertex 51.02831243115191 -4.895154725184412 20.0
  endloop
endfacet
facet normal 1.0 -0.0 0.0
  outer loop
    vertex 51.02831243115191 -4.895154725184412 22.0
    vertex 51.02831243115191 20.104845274815588 20.0
    vertex 51.02831243115191 20.104845274815588 22.0
  endloop
endfacet
facet normal -1.0 -0.0 -0.0
  outer loop
    vertex 49.02831243115192 20.104845274815588 22.0
    vertex 49.02831243115192 -4.895154725184412 20.0
    vertex 49.02831243115192 -4.895154725184412 22.0
  endloop
endfacet
facet normal -1.0 -0.0 -0.0
  outer loop
    vertex 49.02831243115192 -4.895154725184412 20.0
    vertex 49.02831243115192 20.104845274815588 22.0
    vertex 49.02831243115192 20.104845274815588 20.0
  endloop
endfacet
facet normal 1.119174197761198e-16 -0.8 0.6000000000000002
  outer loop
    vertex 51.02831243115191 -21.495154725184417 1.2000000000000002
    vertex 49.02831243115192 -6.4951547251844115 21.2
    vertex 49.02831243115192 -21.49515472518442 1.1999999999999946
  endloop
endfacet
facet normal 1.119174197761198e-16 -0.8 0.6000000000000002
  outer loop
    vertex 49.02831243115192 -6.4951547251844115 21.2
    vertex 51.02831243115191 -21.495154725184417 1.2000000000000002
    vertex 51.02831243115191 -6.4951547251844115 21.2
  endloop
endfacet
facet normal -1.0 -8.953393582089581e-17 6.715045186567188e-17
  outer loop
    vertex 49.02831243115192 -6.4951547251844115 21.2
    vertex 49.02831243115192 -19.895154725184423 -5.639932965095795e-15
    vertex 49.02831243115192 -21.49515472518442 1.1999999999999946
  endloop
endfacet
facet normal -1.0 -8.953393582089581e-17 6.715045186567188e-17
  outer loop
    vertex 49.02831243115192 -19.895154725184423 -5.639932965095795e-15
    vertex 49.02831243115192 -6.4951547251844115 21.2
    vertex 49.02831243115192 -4.895154725184412 20.0
  endloop
endfacet
facet normal 3.947953075567064e-15 -0.6000000000000002 -0.7999999999999999
  outer loop
    vertex 51.02831243115191 -19.895154725184415 0.0
    vertex 49.02831243115192 -21.49515472518442 1.1999999999999946
    vertex 49.02831243115192 -19.895154725184423 -5.639932965095795e-15
  endloop
endfacet
facet normal 3.947953075567064e-15 -0.6000000000000002 -0.7999999999999999
  outer loop
    vertex 49.02831243115192 -21.49515472518442 1.1999999999999946
    vertex 51.02831243115191 -19.895154725184415 0.0
    vertex 51.02831243115191 -21.495154725184417 1.2000000000000002
  endloop
endfacet
facet normal 1.0 8.953393582089582e-17 -6.715045186567188e-17
  outer loop
    vertex 51.02831243115191 -19.895154725184415 0.0
    vertex 51.02831243115191 -6.4951547251844115 21.2
    vertex 51.02831243115191 -21.495154725184417 1.2000000000000002
  endloop
endfacet
facet normal 1.0 8.953393582089582e-17 -6.715045186567188e-17
  outer loop
    vertex 51.02831243115191 -6.4951547251844115 21.2
    vertex 51.02831243115191 -19.895154725184415 0.0
    vertex 51.02831243115191 -4.895154725184412 20.0
  endloop
endfacet
facet normal -1.0 -1.9387269567513203e-17 6.7414823723408e-17
  outer loop
    vertex -0.971687568848086 -6.4951547251844115 21.2
    vertex -0.9716875688480873 -19.895154725184426 5.639932965095795e-15
    vertex -0.971687568848087 -21.495154725184427 1.2000000000000066
  endloop
endfacet
facet normal -1.0 -1.9387269567513203e-17 6.7414823723408e-17
  outer loop
    vertex -0.9716875688480873 -19.895154725184426 5.639932965095795e-15
    vertex -0.971687568848086 -6.4951547251844115 21.2
    vertex -0.9716875688480862 -4.895154725184412 20.0
  endloop
endfacet
facet normal -1.0 0.0 0.0
  outer loop
    vertex -50.97168756884808 -4.895154725184412 20.0
    vertex -50.97168756884808 -6.4951547251844115 21.2
    vertex -50.97168756884808 -4.895154725184412 22.0
  endloop
endfacet
facet normal -0.0 -0.4472135954999573 0.8944271909999162
  outer loop
    vertex -48.97168756884808 -6.4951547251844115 21.2
    vertex -50.97168756884808 -4.895154725184412 22.0
    vertex -50.97168756884808 -6.4951547251844115 21.2
  endloop
endfacet
facet normal -0.0 -0.4472135954999573 0.8944271909999162
  outer loop
    vertex -50.97168756884808 -4.895154725184412 22.0
    vertex -48.97168756884808 -6.4951547251844115 21.2
    vertex -48.97168756884808 -4.895154725184412 22.0
  endloop
endfacet
facet normal 1.0 -0.0 -0.0
  outer loop
    vertex -48.97168756884808 -4.895154725184412 22.0
    vertex -48.97168756884808 -6.4951547251844115 21.2
    vertex -48.97168756884808 -4.895154725184412 20.0
  endloop
endfacet
facet normal 1.0 -0.0 -0.0
  outer loop
    vertex -23.971687568848086 -4.895154725184412 22.0
    vertex -23.971687568848086 -6.4951547251844115 21.2
    vertex -23.971687568848086 -4.895154725184412 20.0
  endloop
endfacet
facet normal -0.0 -0.4472135954999574 0.8944271909999162
  outer loop
    vertex -23.971687568848086 -6.4951547251844115 21.2
    vertex -25.971687568848083 -4.895154725184412 22.0
    vertex -25.971687568848083 -6.4951547251844115 21.2
  endloop
endfacet
facet normal -0.0 -0.4472135954999574 0.8944271909999162
  outer loop
    vertex -25.971687568848083 -4.895154725184412 22.0
    vertex -23.971687568848086 -6.4951547251844115 21.2
    vertex -23.971687568848086 -4.895154725184412 22.0
  endloop
endfacet
facet normal -1.0 0.0 0.0
  outer loop
    vertex -25.971687568848083 -4.895154725184412 20.0
    vertex -25.971687568848083 -6.4951547251844115 21.2
    vertex -25.971687568848083 -4.895154725184412 22.0
  endloop
endfacet
facet normal 1.0 1.1015494072452729e-16 4.300292192233955e-33
  outer loop
    vertex 1.0283124311519136 -4.895154725184412 22.0
    vertex 1.0283124311519138 -6.4951547251844115 21.2
    vertex 1.0283124311519136 -4.895154725184412 20.0
  endloop
endfacet
facet normal -1.0 -1.1015494072452729e-16 -4.300292192233955e-33
  outer loop
    vertex -0.9716875688480862 -4.895154725184412 20.0
    vertex -0.971687568848086 -6.4951547251844115 21.2
    vertex -0.9716875688480862 -4.895154725184412 22.0
  endloop
endfacet
facet normal 5.470290867169685e-32 -0.4472135954999574 0.8944271909999162
  outer loop
    vertex -0.971687568848086 -6.4951547251844115 21.2
    vertex 1.0283124311519136 -4.895154725184412 22.0
    vertex -0.9716875688480862 -4.895154725184412 22.0
  endloop
endfacet
facet normal 5.470290867169685e-32 -0.4472135954999574 0.8944271909999162
  outer loop
    vertex 1.0283124311519136 -4.895154725184412 22.0
    vertex -0.971687568848086 -6.4951547251844115 21.2
    vertex 1.0283124311519138 -6.4951547251844115 21.2
  endloop
endfacet
facet normal -1.0 0.0 0.0
  outer loop
    vertex 24.028312431151914 -4.895154725184412 20.0
    vertex 24.028312431151914 -6.4951547251844115 21.2
    vertex 24.028312431151914 -4.895154725184412 22.0
  endloop
endfacet
facet normal -0.0 -0.4472135954999574 0.8944271909999162
  outer loop
    vertex 26.02831243115191 -6.4951547251844115 21.2
    vertex 24.028312431151914 -4.895154725184412 22.0
    vertex 24.028312431151914 -6.4951547251844115 21.2
  endloop
endfacet
facet normal -0.0 -0.4472135954999574 0.8944271909999162
  outer loop
    vertex 24.028312431151914 -4.895154725184412 22.0
    vertex 26.02831243115191 -6.4951547251844115 21.2
    vertex 26.02831243115191 -4.895154725184412 22.0
  endloop
endfacet
facet normal 1.0 -0.0 -0.0
  outer loop
    vertex 26.02831243115191 -4.895154725184412 22.0
    vertex 26.02831243115191 -6.4951547251844115 21.2
    vertex 26.02831243115191 -4.895154725184412 20.0
  endloop
endfacet
facet normal -1.0 0.0 0.0
  outer loop
    vertex 49.02831243115192 -4.895154725184412 20.0
    vertex 49.02831243115192 -6.4951547251844115 21.2
    vertex 49.02831243115192 -4.895154725184412 22.0
  endloop
endfacet
facet normal -0.0 -0.4472135954999573 0.8944271909999162
  outer loop
    vertex 51.02831243115191 -6.4951547251844115 21.2
    vertex 49.02831243115192 -4.895154725184412 22.0
    vertex 49.02831243115192 -6.4951547251844115 21.2
  endloop
endfacet
facet normal -0.0 -0.4472135954999573 0.8944271909999162
  outer loop
    vertex 49.02831243115192 -4.895154725184412 22.0
    vertex 51.02831243115191 -6.4951547251844115 21.2
    vertex 51.02831243115191 -4.895154725184412 22.0
  endloop
endfacet
facet normal 1.0 -0.0 -0.0
  outer loop
    vertex 51.02831243115191 -4.895154725184412 22.0
    vertex 51.02831243115191 -6.4951547251844115 21.2
    vertex 51.02831243115191 -4.895154725184412 20.0
  endloop
endfacet
endsolid usb-box-01
